<?xml version="1.0" encoding="UTF-8" standalone="no"?>
<svg
   xmlns:dc="http://purl.org/dc/elements/1.1/"
   xmlns:cc="http://creativecommons.org/ns#"
   xmlns:rdf="http://www.w3.org/1999/02/22-rdf-syntax-ns#"
   xmlns:svg="http://www.w3.org/2000/svg"
   xmlns="http://www.w3.org/2000/svg"
   viewBox="0 0 745.35999 434.66666"
   height="434.66666"
   width="745.35999"
   xml:space="preserve"
   id="svg2"
   version="1.1"><metadata
     id="metadata8"><rdf:RDF><cc:Work
         rdf:about=""><dc:format>image/svg+xml</dc:format><dc:type
           rdf:resource="http://purl.org/dc/dcmitype/StillImage" /></cc:Work></rdf:RDF></metadata><defs
     id="defs6" /><g
     transform="matrix(1.3333333,0,0,-1.3333333,0,434.66667)"
     id="g10"><g
       transform="scale(0.1)"
       id="g12"><path
         id="path14"
         style="fill:#ed1c24;fill-opacity:1;fill-rule:nonzero;stroke:none"
         d="M 768.445,302.449 H 630.078 V 219.512 H 764.426 V 170.555 H 630.078 V 55.2148 H 768.445 V 6.26172 H 578 V 351.395 h 190.445 v -48.946" /><path
         id="path16"
         style="fill:#ed1c24;fill-opacity:1;fill-rule:nonzero;stroke:none"
         d="m 1366.86,186.648 -95,164.747 h 59.23 l 65.94,-116.903 69.3,116.903 h 59.69 L 1426.54,186.648 1530.94,6.26172 h -58.35 L 1396.14,138.367 1317.45,6.26172 h -59.01 L 1366.86,186.648" /><path
         id="path18"
         style="fill:#ed1c24;fill-opacity:1;fill-rule:nonzero;stroke:none"
         d="M 2087.31,146.418 V 6.26172 h -52.08 V 351.395 h 59.02 c 28.9,0 50.74,-2.008 65.5,-6.036 14.89,-4.019 28,-11.621 39.33,-22.793 19.83,-19.375 29.74,-43.816 29.74,-73.316 0,-31.605 -10.59,-56.633 -31.75,-75.109 -21.16,-18.489 -49.69,-27.723 -85.61,-27.723 z m 0,48.277 h 19.46 c 47.83,0 71.75,18.41 71.75,55.219 0,35.613 -24.66,53.426 -73.99,53.426 h -17.22 V 194.695" /><path
         id="path20"
         style="fill:#ed1c24;fill-opacity:1;fill-rule:nonzero;stroke:none"
         d="M 2857.18,153.348 2964.03,6.26172 h -63.71 L 2801.74,147.539 h -9.39 V 6.26172 h -52.08 V 351.395 h 61.03 c 45.59,0 78.54,-8.563 98.8,-25.704 22.35,-19.07 33.53,-44.257 33.53,-75.554 0,-24.446 -7.01,-45.449 -21.01,-63.039 -14.02,-17.586 -32.49,-28.836 -55.44,-33.75 z m -64.83,39.562 h 16.54 c 49.33,0 74,18.856 74,56.563 0,35.312 -24,52.976 -71.98,52.976 h -18.56 V 192.91" /><path
         id="path22"
         style="fill:#ed1c24;fill-opacity:1;fill-rule:nonzero;stroke:none"
         d="m 3664.15,302.449 h -138.37 v -82.937 h 134.35 V 170.555 H 3525.78 V 55.2148 h 138.37 V 6.26172 H 3473.7 V 351.395 h 190.45 v -48.946" /><path
         id="path24"
         style="fill:#ed1c24;fill-opacity:1;fill-rule:nonzero;stroke:none"
         d="m 4385.51,300.215 -42.25,-25.039 c -7.9,13.711 -15.43,22.644 -22.58,26.828 -7.46,4.762 -17.07,7.144 -28.84,7.144 -14.46,0 -26.45,-4.097 -35.98,-12.304 -9.54,-8.055 -14.31,-18.192 -14.31,-30.418 0,-16.856 12.51,-30.418 37.55,-40.711 l 34.42,-14.094 c 28.02,-11.34 48.51,-25.164 61.48,-41.492 12.97,-16.34 19.44,-36.359 19.44,-60.07 0,-31.766 -10.57,-58.0082 -31.73,-78.7426 C 4341.39,10.4375 4314.94,0 4283.35,0 c -29.95,0 -54.7,8.90625 -74.22,26.7266 -19.22,17.7929 -31.22,42.7929 -35.99,74.9844 l 52.76,11.621 c 2.38,-20.2656 6.56,-34.2773 12.52,-42.0234 10.73,-14.9023 26.38,-22.3516 46.94,-22.3516 16.24,0 29.73,5.4375 40.46,16.3047 10.73,10.8711 16.09,24.6406 16.09,41.3203 0,6.699 -0.93,12.852 -2.79,18.43 -1.86,5.582 -4.76,10.718 -8.72,15.418 -3.94,4.687 -9.05,9.082 -15.31,13.172 -6.26,4.093 -13.71,8.007 -22.36,11.73 l -33.3,13.848 c -47.24,19.961 -70.86,49.152 -70.86,87.57 0,25.906 9.91,47.574 29.73,65 19.81,17.566 44.48,26.355 74,26.355 39.78,0 70.85,-19.296 93.21,-57.89" /><path
         id="path26"
         style="fill:#ed1c24;fill-opacity:1;fill-rule:nonzero;stroke:none"
         d="m 5110.21,300.215 -42.24,-25.039 c -7.9,13.711 -15.43,22.644 -22.58,26.828 -7.46,4.762 -17.07,7.144 -28.84,7.144 -14.46,0 -26.45,-4.097 -35.98,-12.304 -9.55,-8.055 -14.31,-18.192 -14.31,-30.418 0,-16.856 12.51,-30.418 37.55,-40.711 l 34.42,-14.094 c 28.02,-11.34 48.51,-25.164 61.48,-41.492 12.97,-16.34 19.44,-36.359 19.44,-60.07 0,-31.766 -10.58,-58.0082 -31.74,-78.7426 C 5066.1,10.4375 5039.65,0 5008.05,0 c -29.94,0 -54.69,8.90625 -74.21,26.7266 -19.22,17.7929 -31.22,42.7929 -35.99,74.9844 l 52.76,11.621 c 2.38,-20.2656 6.56,-34.2773 12.52,-42.0234 10.73,-14.9023 26.37,-22.3516 46.94,-22.3516 16.24,0 29.73,5.4375 40.46,16.3047 10.73,10.8711 16.09,24.6406 16.09,41.3203 0,6.699 -0.93,12.852 -2.79,18.43 -1.87,5.582 -4.77,10.718 -8.72,15.418 -3.95,4.687 -9.06,9.082 -15.31,13.172 -6.26,4.093 -13.72,8.007 -22.36,11.73 l -33.3,13.848 c -47.25,19.961 -70.86,49.152 -70.86,87.57 0,25.906 9.9,47.574 29.73,65 19.81,17.566 44.48,26.355 73.99,26.355 39.79,0 70.86,-19.296 93.21,-57.89" /><path
         id="path28"
         style="fill:#ed1c24;fill-opacity:1;fill-rule:nonzero;stroke:none"
         d="M 414.426,2232.2 0,2231.34 v -933.85 l 413.809,-0.08 327.578,467.83 z M 316.582,1484.39 H 186.895 v 560.69 h 130.39 L 513.23,1765.23 316.582,1484.39" /><path
         id="path30"
         style="fill:#ed1c24;fill-opacity:1;fill-rule:nonzero;stroke:none"
         d="m 1233.63,1484.43 196.27,280.32 -196.33,280.39 333.75,0.58 -130.5,186.35 H 874.531 l 327.229,-467.32 -327.17,-467.22 562.15,0.86 130.45,186.28 -333.56,-0.24" /><path
         id="path32"
         style="fill:#ed1c24;fill-opacity:1;fill-rule:nonzero;stroke:none"
         d="m 4348.81,1965.57 v -667.89 h 186.91 v 934.53 h -0.22 l -186.69,-266.64" /><path
         id="path34"
         style="fill:#ed1c24;fill-opacity:1;fill-rule:nonzero;stroke:none"
         d="m 5216.45,1965.57 v -667.89 h -186.92 v 934.52 h 0.23 l 186.69,-266.63" /><path
         id="path36"
         style="fill:#ed1c24;fill-opacity:1;fill-rule:nonzero;stroke:none"
         d="m 5045.57,1297.76 413.81,-0.08 130.85,186.88 h -544.66 v -186.8" /><path
         id="path38"
         style="fill:#ed1c24;fill-opacity:1;fill-rule:nonzero;stroke:none"
         d="m 3284.36,1191.65 h -686.5 l 340.51,493.84 z" /><path
         id="path40"
         style="fill:#ed1c24;fill-opacity:1;fill-rule:nonzero;stroke:none"
         d="m 2075.59,1858.4 -392.36,560.71 h 392.28 z" /><path
         id="path42"
         style="fill:#ed1c24;fill-opacity:1;fill-rule:nonzero;stroke:none"
         d="m 2759.52,1601.89 -226.71,-328 -363.76,519.38 v 652.47 l 590.47,-843.85" /><path
         id="path44"
         style="fill:#ed1c24;fill-opacity:1;fill-rule:nonzero;stroke:none"
         d="m 2542.86,2725.78 v -651.99 l -373.81,534.19 v 651.99 l 373.81,-534.19" /><path
         id="path46"
         style="fill:#ed1c24;fill-opacity:1;fill-rule:nonzero;stroke:none"
         d="m 2673,2214.76 v -325.99 l 143.13,-204.53 113.35,164.01 -256.48,366.51" /><path
         id="path48"
         style="fill:#ed1c24;fill-opacity:1;fill-rule:nonzero;stroke:none"
         d="m 2597.86,1098.19 h 686.5 l -340.5,-493.846 z" /><path
         id="path50"
         style="fill:#ed1c24;fill-opacity:1;fill-rule:nonzero;stroke:none"
         d="m 3798.64,1858.38 392.37,560.71 h -392.28 z" /><path
         id="path52"
         style="fill:#ed1c24;fill-opacity:1;fill-rule:nonzero;stroke:none"
         d="m 3114.72,1601.88 226.71,-327.99 363.75,519.36 v 652.47 l -590.46,-843.84" /><path
         id="path54"
         style="fill:#ed1c24;fill-opacity:1;fill-rule:nonzero;stroke:none"
         d="m 3331.38,2725.76 v -651.99 l 373.8,534.19 v 651.99 l -373.8,-534.19" /><path
         id="path56"
         style="fill:#ed1c24;fill-opacity:1;fill-rule:nonzero;stroke:none"
         d="m 3201.24,2214.73 v -325.99 l -143.13,-204.52 -113.35,164.01 256.48,366.5" /></g></g></svg>