<svg width="335" height="355" viewBox="0 0 335 355" fill="none" xmlns="http://www.w3.org/2000/svg">
<path d="M213.484 275.776H121.951L167.352 209.931L213.484 275.776Z" fill="#ED1C24"/>
<path d="M52.3147 186.876L0 112.115H52.304L52.3147 186.876Z" fill="#ED1C24"/>
<path d="M143.505 221.077L113.277 264.811L64.776 195.56V108.564L143.505 221.077Z" fill="#ED1C24"/>
<path d="M114.617 71.2253V158.157L64.776 86.932V3.3234e-06L114.617 71.2253Z" fill="#ED1C24"/>
<path d="M131.969 139.361V182.827L151.053 210.097L166.167 188.229L131.969 139.361Z" fill="#ED1C24"/>
<path d="M121.951 288.237H213.484L168.084 354.083L121.951 288.237Z" fill="#ED1C24"/>
<path d="M282.055 186.879L334.371 112.117H282.067L282.055 186.879Z" fill="#ED1C24"/>
<path d="M190.865 221.079L221.093 264.811L269.593 195.563V108.567L190.865 221.079Z" fill="#ED1C24"/>
<path d="M219.753 71.228V158.16L269.593 86.9347V0.00265835L219.753 71.228Z" fill="#ED1C24"/>
<path d="M202.401 139.365V182.831L183.317 210.1L168.204 188.232L202.401 139.365Z" fill="#ED1C24"/>
</svg>
